<?xml version="1.0" encoding="UTF-8" standalone="no"?>
<svg xmlns="http://www.w3.org/2000/svg" width="120" height="120" viewBox="0 0 120 120">
  <defs>
    <linearGradient id="primary-gradient" x1="0%" y1="0%" x2="100%" y2="100%">
      <stop offset="0%" style="stop-color:#6563ef;stop-opacity:1" />
      <stop offset="100%" style="stop-color:#3580ff;stop-opacity:1" />
    </linearGradient>
    <linearGradient id="secondary-gradient" x1="0%" y1="100%" x2="100%" y2="0%">
      <stop offset="0%" style="stop-color:#3580ff;stop-opacity:1" />
      <stop offset="100%" style="stop-color:#4fc2e3;stop-opacity:1" />
    </linearGradient>
  </defs>
  
  <!-- Background Circle -->
  <circle cx="60" cy="60" r="60" fill="#f8f8f8" />
  
  <!-- n8n Main Icon -->
  <g transform="translate(24, 20) scale(0.6)">
    <!-- n8n Workflow Lines -->
    <rect x="10" y="30" width="100" height="8" rx="4" fill="url(#primary-gradient)" />
    <rect x="10" y="50" width="100" height="8" rx="4" fill="url(#secondary-gradient)" />
    <rect x="10" y="70" width="100" height="8" rx="4" fill="url(#primary-gradient)" />
    
    <!-- n8n Workflow Nodes -->
    <circle cx="30" cy="34" r="12" fill="#6563ef" />
    <circle cx="70" cy="34" r="12" fill="#5e71fe" />
    <circle cx="110" cy="34" r="12" fill="#3580ff" />
    
    <circle cx="30" cy="54" r="12" fill="#3580ff" />
    <circle cx="70" cy="54" r="12" fill="#3d9bf8" />
    <circle cx="110" cy="54" r="12" fill="#4fc2e3" />
    
    <circle cx="30" cy="74" r="12" fill="#6563ef" />
    <circle cx="70" cy="74" r="12" fill="#5e71fe" />
    <circle cx="110" cy="74" r="12" fill="#3580ff" />
  </g>
  
  <!-- "MCP" Text -->
  <text x="60" y="102" font-family="Arial, sans-serif" font-size="14" font-weight="bold" text-anchor="middle" fill="#333">
    MCP
  </text>
  
  <!-- aegntic.ai Branding -->
  <text x="60" y="116" font-family="Arial, sans-serif" font-size="8" text-anchor="middle" fill="#6563ef">
    powered by aegntic.ai
  </text>
</svg>
